<svg version="1.2" xmlns="http://www.w3.org/2000/svg" viewBox="0 0 571 403" width="571" height="403">
	<title>mercado-pago-logo-vector-2023-svg</title>
	<style>
		.s0 { fill: #00bcff } 
		.s1 { fill: #ffffff } 
		.s2 { fill: #0a0080 } 
	</style>
	<path class="s0" d="m286.7 15.1c-151.1 0-273.6 78.5-273.6 175 0 96.6 122.5 182.7 273.6 182.7 151 0 273.6-85.9 273.6-182.7 0-96.8-122.6-175-273.6-175z"/>
	<path class="s1" d="m197.5 136.1c-0.2 0.3-2.8 3.1-1 5.4 4.3 5.3 17.3 8.4 30.6 5.6 7.9-1.8 17.8-9.7 27.7-17.6 10.7-8.4 21.2-16.8 31.6-20.1 11.2-3.6 18.4-2.1 23.2-0.5 5.1 1.5 11.2 5.1 21.1 12.2 18.4 13.8 92 78.2 105 89.2 10.2-4.6 59.1-24.5 121-38-5.4-33.1-25.2-64.4-55.8-89.2-42.5 17.9-97.8 28.6-148.8 3.9-0.2 0-27.7-13-54.7-12.5-40.3 1-57.8 18.3-76.2 36.9z"/>
	<path class="s1" d="m432.4 217.1c-0.8-0.7-86.6-75.9-106.2-90.4-11.2-8.4-17.6-10.7-24.2-11.5-3.3-0.5-8.2 0.3-11.5 1.1-9.2 2.5-20.9 10.4-31.3 18.6-11 8.6-21.2 16.8-30.6 18.8-12.2 2.8-27-0.5-33.9-5.1-2.8-1.8-4.6-4.1-5.6-6.1-2.5-5.9 2.1-10.4 2.8-11.2l23.7-25.7c2.8-2.8 5.6-5.6 8.4-8.2-7.6 1-14.8 3.1-21.6 4.9-8.7 2.2-16.9 4.5-25.3 4.5-3.5 0-22.1-3-25.7-4-21.4-5.9-45.8-11.5-73.9-24.7-33.6 24.9-55.5 55.7-62.1 90.4 4.8 1.3 17.6 4.1 20.9 4.8 76.1 17.1 99.8 34.4 104.2 38 4.5-5.1 11.4-8.4 18.8-8.4 8.4 0 16.1 4.3 20.6 10.7 4.4-3.6 10.5-6.4 18.1-6.4 3.6 0 7.2 0.8 11 1.8 8.6 3 13 8.6 15.3 13.7 2.8-1.2 6.3-2.3 10.7-2.3 4 0 8.4 1.1 12.7 2.9 14 6.1 16.3 19.8 15 30.3 1.1 0 2.1-0.3 3.1-0.3 16.5 0 30.3 13.5 30.3 30.3 0 5.1-1.3 10-3.6 14.3 4.6 2.5 16.1 8.4 26.3 7.1 8.1-1 11.2-3.8 12.2-5.3 0.8-1 1.5-2.3 0.8-3.3l-21.4-24c0 0-3.6-3.3-2.3-4.6 1.3-1.2 3.3 0.5 4.8 1.8 11 9.2 24.2 22.9 24.2 22.9 0.3 0.3 1 1.8 6.1 2.8 4.4 0.8 11.7 0.3 17.1-4 1.3-1.1 2.5-2.6 3.8-3.9l-0.2 0.3c5.6-7.1-0.5-14.3-0.5-14.3l-25.3-28.2c0 0-3.5-3.4-2.3-4.6 1.1-1.3 3.4 0.5 5.1 1.8 7.9 6.6 19.1 17.8 30.1 28.5 2 1.5 11.5 7.4 24.2-0.8 7.6-5.1 9.2-11.2 8.9-15.8-0.5-6.1-5.3-10.4-5.3-10.4l-34.4-34.4c0 0-3.6-3.1-2.3-4.6 1-1.3 3.3 0.5 4.8 1.8 11 9.2 40.5 36.2 40.5 36.2 0.5 0.2 10.7 7.6 23.2-0.5 4.6-2.8 7.4-7.2 7.6-12.3 0.3-7.9-5.8-13-5.8-13z"/>
	<path class="s1" d="m266 260.7c-5.3 0-11.2 3.1-11.9 2.5-0.5-0.2 0.2-2.2 0.7-3.5 0.5-1.3 7.4-22.2-9.4-29.6-13-5.6-21.1 0.8-23.7 3.6-0.7 0.8-1 0.8-1-0.3-0.3-3.8-2-14-13.2-17.5-16.1-4.9-26.5 6.3-29.1 10.4-1.3-9.2-8.9-16.3-18.3-16.3-10.5 0-18.6 8.4-18.9 18.6 0 10.4 8.4 18.6 18.6 18.6 5.1 0 9.7-2 13-5.1 0 0 0.3 0.3 0 0.5-0.8 4.6-2.3 21.4 15.3 28.3 7.1 2.8 13 0.7 18.1-2.8 1.5-1 1.8-0.5 1.5 0.7-0.8 4.4 0.3 13.5 13.3 18.9 9.9 4.1 15.8 0 19.6-3.6 1.8-1.5 2-1.2 2.3 1.1 0.5 12.4 10.9 22.4 23.4 22.4 13 0 23.4-10.5 23.4-23.5-0.2-12.7-10.7-23.1-23.7-23.4z"/>
	<path fill-rule="evenodd" class="s2" d="m565.4 190.4v10.7c0 106.5-109.1 192.8-278.7 192.8-169.7 0-278.7-86.3-278.7-192.8 0-1 0-8.2 0-10.7 0-100.6 124.8-182.4 278.7-182.4 153.8 0 278.7 81.8 278.7 182.4zm-65-104.2c-27 12.5-52.7 18.6-77.7 18.6-24.2 0-47.9-5.9-71.1-17.1-2.5-1.2-27.2-12.2-51.9-12.2-0.8 0-1.3 0-2.1 0-39.7 1-56.8 18.1-75.1 36.4l-23.2 25-0.2 0.3c-1.3 1.5-1.6 2.5-1.1 3 2.8 3.6 10.5 6.1 18.9 6.1 3.3 0 6.6-0.2 9.9-1 7.4-1.8 17.3-9.7 27-17.3v-0.3c10.2-8.1 20.9-16.8 31.6-20.1 4.8-1.5 9.2-2.3 13.5-2.3 4.6 0 8.2 0.8 10.7 1.5 5.9 1.6 12.2 5.4 21.7 12.5 16.5 12.5 77.7 65.5 104.1 88.7 11.5-4.9 56.6-24.5 117.2-38-5.6-31.1-24.4-59.9-52.2-83.8zm-413.4-10.7c32.6 12.2 73.3 22.2 81.5 22.4 0.5 0 5.8 0.3 8.6 0.3 7.2 0 14.3-2.1 22.7-4.4 9.4-2.5 20.1-5.6 32.4-5.8 12.7-10.5 31.3-22.2 64.7-22.9q1.1 0 2.3 0c28.5 0 55.7 13 56.8 13.5 21.6 10.7 44 16 66.5 16 21.9 0 44.5-5.3 68.2-15.5-49.1-37-122.3-60.4-204-60.4-79.2 0-150.3 21.9-199.7 56.8zm-65.5 92.5c4.8 1.2 12.5 3.5 15.8 4.3 70.6 16.1 97 32.9 103.7 38 5.1-5.1 11.9-7.9 19.1-7.9 8.1 0 15.8 3.8 20.9 10.2 5.3-3.6 11.2-5.7 17.8-5.7 3.8 0 7.6 0.8 11.5 2.1 6.8 2.3 12.2 6.9 15.5 13.2 3.1-1.2 6.4-1.8 9.7-1.8 4.3 0 8.6 1.1 13.2 3.1 15.8 6.9 16.8 21.9 16.3 30.1 0.3 0 0.8 0 1 0 17.6 0 31.9 14.2 31.9 31.8 0 4.6-1 9.2-3.1 13.5 4.4 2.3 13 6.1 20.9 6.1 1 0 1.8-0.2 2.8-0.2 7.9-1.1 10.5-3.6 11.2-4.6q0.8-1.2 0.8-1.5l-21.4-23.7c-1.3-1.3-4.3-4.6-2.3-6.9 0.8-0.8 1.5-1 2.3-1 1.8 0 3.6 1.2 4.8 2.5 10.5 8.7 23.2 21.4 24.5 22.9l0.2 0.3c0.8 1 2.3 1.5 4.9 2 1 0.3 2 0.3 3.3 0.3 2.3 0 7.9-0.3 12.2-3.8 0.8-0.8 2.6-2.6 3.3-3.3 4.6-5.9-0.2-11.8-0.5-12l-24.9-28.3c0 0-1.1-1-1.8-2-1.8-2.8-1.3-4.4-0.5-5.1 0.7-0.8 1.5-1 2.3-1 1.7 0 3.3 1.2 5.1 2.5 6.8 5.6 16.3 14.8 25.2 23.7l4.8 4.8c0.8 0.8 4.3 3.1 9.7 3.1 4.1 0 8.1-1.3 12.2-4.1 5.6-3.8 8.4-8.6 8.2-14.3-0.5-5.3-4.9-9.4-4.9-9.4l-34.4-34.6c-2.2-1.8-4.3-4.9-2.5-6.9 0.5-0.5 1.3-1 2.3-1 1.8 0 3.3 1.3 5.1 2.8 10.7 9.2 40.2 36.2 40.5 36.4 0.2 0 4.1 2.8 9.9 2.8 3.8 0 7.7-1.3 11.2-3.6 4.4-2.8 6.7-6.6 6.9-10.9 0.5-7.9-5.1-12.7-5.1-12.7-0.8-0.8-86.6-76-106-90.5-10.7-8.1-16.8-10.4-23.1-11.2-0.8-0.2-1.6-0.2-2.3-0.2-2.8 0-5.9 0.5-8.7 1.2-9.7 2.6-22.2 11.5-30.8 18.4-11 8.9-21.4 17-31.3 19.3-3.1 0.8-6.4 1.1-10 1.1-9.2 0-19.3-2.6-24.9-6.4-2.8-2.1-5.1-4.3-6.2-6.9-2.5-6.1 1.6-11.2 3.4-13l23.6-25.5q2.3-2.2 4.6-4.5c-5.6 1.2-11.2 2.8-16 4-8.4 2.3-17.1 4.9-25.7 4.9-4.1 0-7.9-0.5-11.5-0.8-13.3-0.8-54.5-11.5-88.4-25.5-30.1 24-50.2 53-56.3 85.4zm533.2 22.4c0-3.1 0-5.9-0.3-8.7-49.9 11.5-92.5 27-111.1 34.9 2.8 4.6 4.4 10 3.9 15.3-0.8 7.9-4.9 14.8-11.8 19.1-5.3 3.3-10.9 5.1-16.8 5.1-2 0-3.8 0-5.8-0.5 0 6.1-1.8 15.5-13 22.9-5.6 3.8-11.7 5.6-17.9 5.6-2 0-3.8 0-5.8-0.5v0.3c-0.5 5.1-4.6 10.9-10.2 15q-8.8 6.1-17.6 6.1c-3.3 0-6.1-0.5-8.6-1.3-0.3 0.6-0.5 1.3-1.1 1.8-2.2 3.3-7.3 7.7-18.3 8.9-1.3 0.3-2.5 0.3-4.1 0.3-10.9 0-21.9-5.3-27-8.2-6.1 6.2-14.2 9.7-22.9 9.7-13 0-24.7-7.9-29.5-19.8-2.6 1-5.4 1.5-8.2 1.5q-5.3 0-10.7-2.3c-10.2-4.3-14.8-10.7-16.8-15.8q-3.1 0.8-6.1 0.8c-3.3 0-6.4-0.5-9.7-1.8-11-4.3-18.1-12.8-20.4-23.7-1.8 0.2-3.3 0.5-5.1 0.5-14.8 0-27-12-27-27 0-3.6 0.8-7.1 2.1-10.4-4.1-3.4-28.1-19.9-100.2-36-2.2-0.5-14-3.3-15.2-3.5q-0.8 5.7-0.8 11.4c0 94.8 120 171.5 268 171.5 148 0 268-76.7 268-171.2zm-345.5 78.7c-0.5 3.6-0.2 12 12.3 17.1 2.5 1 4.8 1.5 7.1 1.5 4.8 0 8.2-2.5 10.7-4.8 0.8-0.8 1.5-1.3 2.5-1.3 2.1 0 2.3 2.5 2.3 3.6 0.5 11.7 10.2 20.8 21.9 20.8 12 0 22-9.9 22-21.9 0-11.9-10-21.6-22-21.9-3.3 0-6.3 1-8.6 1.8-1.5 0.5-2.3 0.8-3.1 0.8h-0.5l-0.5-0.3c-1.3-0.7-1-2.3 0.3-5.6 0-0.2 7.4-20.6-8.7-27.5-3.3-1.3-6.4-2-9.4-2-6.4 0-10.7 3.3-12.5 5.3-0.5 0.5-1.3 1-2 1-0.3 0-1.8 0-2.1-2.3-0.2-3.8-1.8-13-12-16-2.5-0.8-5-1.3-7.3-1.3-12.8 0-19.7 10.5-19.9 11l-2.6 3.8-0.5-4.6c-1-8.4-8.4-14.8-16.8-14.8-9.4 0-17 7.7-17 17.1 0 9.4 7.6 17.1 17 17.1 4.4 0 8.4-1.8 11.7-4.9l1.1-1 1.2 1c0.8 0.5 0.8 1.3 0.8 2.3-0.8 4.6-2 20.1 14.3 26.5 2 0.5 3.8 1 5.8 1 3.3 0 6.9-1.2 10.5-3.8 0.7-0.5 1.5-0.8 2-0.8h0.8l0.7 0.8c0.8 0.8 0.5 1.5 0.5 2.3z"/>
</svg>